<svg xmlns="http://www.w3.org/2000/svg" xmlns:xlink="http://www.w3.org/1999/xlink" width="640" zoomAndPan="magnify" viewBox="0 0 480 479.999983" height="640" preserveAspectRatio="xMidYMid meet" version="1.0"><path fill="#2a4aa1" d="M 307.863281 456.507812 C 290.890625 456.507812 278.304688 451.515625 270.113281 441.523438 C 261.964844 431.53125 257.894531 419.597656 257.894531 405.707031 C 257.894531 385.410156 265.449219 369.464844 280.570312 357.820312 C 295.726562 346.136719 315.425781 337.71875 339.6875 332.535156 C 362.6875 327.734375 374.199219 320.160156 374.199219 309.859375 C 374.199219 305.921875 372.527344 302.054688 369.207031 298.253906 C 365.867188 294.46875 360.097656 292.558594 351.90625 292.558594 C 343.71875 292.558594 337.09375 294.769531 331.921875 299.175781 C 326.792969 303.589844 322.253906 308.59375 318.316406 314.160156 C 314.363281 319.757812 310.03125 324.75 305.328125 329.144531 C 300.664062 333.5625 294.375 335.761719 286.492188 335.761719 C 281.367188 335.761719 276.902344 333.957031 273.121094 330.296875 C 269.320312 326.667969 267.425781 322.261719 267.425781 317.078125 C 267.425781 306.777344 271.496094 298.089844 279.648438 291.023438 C 287.835938 283.910156 298.523438 278.535156 311.703125 274.875 C 324.863281 271.246094 339.1875 269.414062 354.671875 269.414062 C 371.320312 269.414062 386.457031 272.082031 400.097656 277.410156 C 413.722656 282.691406 424.617188 291.53125 432.769531 303.925781 C 440.957031 316.339844 445.066406 333.292969 445.066406 354.816406 L 445.066406 395.25 C 445.066406 405.859375 445.796875 413.894531 447.292969 419.308594 C 448.828125 424.753906 450.632812 428.765625 452.753906 431.375 C 454.90625 433.949219 456.710938 436.0625 458.21875 437.761719 C 459.753906 439.410156 460.523438 441.886719 460.523438 445.21875 C 460.523438 449.730469 459.140625 452.734375 456.375 454.214844 C 453.648438 455.75 450.183594 456.519531 445.996094 456.519531 C 441.425781 456.519531 436.40625 456.058594 430.933594 455.136719 C 425.492188 454.253906 420.519531 453.832031 416.027344 453.832031 C 411.148438 453.832031 406.894531 454.0625 403.265625 454.523438 C 399.621094 454.980469 395.828125 455.519531 391.890625 456.132812 C 387.070312 456.691406 382.761719 456.058594 378.980469 454.214844 C 375.175781 452.429688 372.980469 449.125 372.363281 444.296875 C 372.058594 439.441406 371.289062 436.1875 370.0625 434.535156 C 368.871094 432.84375 367.390625 432 365.605469 432 C 362.265625 432 357.9375 434.054688 352.617188 438.152344 C 347.335938 442.261719 340.972656 446.363281 333.550781 450.449219 C 326.113281 454.484375 317.558594 456.527344 307.882812 456.527344 Z M 328.308594 387.023438 C 328.308594 395.847656 330.480469 402.144531 334.847656 405.9375 C 339.246094 409.679688 344.496094 411.550781 350.601562 411.550781 C 358.136719 411.550781 363.859375 408.308594 367.824219 401.789062 C 371.761719 395.289062 373.746094 387.648438 373.746094 378.882812 L 373.746094 357.054688 C 373.746094 348.902344 369.945312 346.808594 362.371094 350.746094 C 357.550781 353.164062 352.472656 355.796875 347.15625 358.664062 C 341.875 361.546875 337.410156 365.105469 333.78125 369.351562 C 330.132812 373.613281 328.320312 379.496094 328.320312 387.035156 Z M 328.308594 387.023438 " fill-opacity="1" fill-rule="nonzero"/><path fill="#2a4aa1" d="M 51.609375 242.957031 C 39.8125 242.957031 31.507812 236.765625 26.707031 224.351562 C 21.886719 211.902344 19.476562 192.027344 19.476562 164.699219 C 19.476562 124.320312 25.210938 85.949219 36.699219 49.546875 C 39.503906 40.53125 44.101562 33.945312 50.457031 29.789062 C 56.859375 25.601562 65.789062 23.480469 77.289062 23.480469 C 83.480469 23.480469 87.820312 24.25 90.277344 25.785156 C 92.773438 27.320312 94.042969 30.277344 94.042969 34.628906 C 94.042969 39.601562 91.699219 50.8125 87.042969 68.21875 C 83.972656 80.628906 81.464844 91.410156 79.585938 100.578125 C 77.742188 109.765625 76.203125 121.179688 74.976562 134.859375 C 83.320312 110.628906 93.3125 90.125 104.957031 73.363281 C 116.640625 56.5625 128.59375 44.054688 140.851562 35.847656 C 153.148438 27.601562 164.714844 23.472656 175.59375 23.472656 C 186.46875 23.472656 194.140625 25.96875 198.652344 30.929688 C 203.144531 35.902344 205.421875 43.515625 205.421875 53.761719 C 205.421875 64.003906 202.464844 81.726562 196.578125 107.796875 C 194.121094 118.980469 192.394531 127.363281 191.433594 132.929688 C 206.996094 94.761719 224.257812 66.980469 243.167969 49.601562 C 262.117188 32.1875 279.847656 23.472656 296.363281 23.472656 C 316.539062 23.472656 326.648438 33.582031 326.648438 53.761719 C 326.648438 65.867188 323.210938 87.773438 316.347656 119.480469 C 310.445312 146.503906 307.507812 164.351562 307.507812 173.058594 C 307.507812 185.472656 312 191.664062 321.035156 191.664062 C 327.226562 191.664062 334.597656 187.882812 343.171875 180.289062 C 351.726562 172.65625 363.160156 160.300781 377.453125 143.242188 C 381.140625 138.902344 385.316406 136.703125 389.980469 136.703125 C 394.011719 136.703125 397.210938 138.585938 399.511719 142.320312 C 401.855469 146.007812 403.046875 151.140625 403.046875 157.691406 C 403.046875 170.101562 400.089844 179.730469 394.203125 186.59375 C 380.832031 203.050781 366.449219 216.558594 351.082031 227.105469 C 335.710938 237.675781 318.222656 242.9375 298.65625 242.9375 C 282.824219 242.9375 270.84375 238.386719 262.761719 229.257812 C 254.648438 220.089844 250.617188 206.792969 250.617188 189.359375 C 250.617188 180.652344 252.789062 165.128906 257.15625 142.78125 C 261.1875 123.214844 263.230469 109.691406 263.230469 102.191406 C 263.230469 97.238281 261.503906 94.734375 258.085938 94.734375 C 254.09375 94.734375 248.34375 99.957031 240.863281 110.410156 C 233.425781 120.824219 225.972656 134.542969 218.496094 151.613281 C 211.054688 168.679688 205.007812 186.699219 200.351562 205.652344 C 196.914062 220.558594 192.929688 230.515625 188.4375 235.476562 C 183.925781 240.453125 176.699219 242.9375 166.761719 242.9375 C 156.824219 242.9375 148.808594 238.0625 143.703125 228.257812 C 138.574219 218.476562 136.011719 206.621094 136.011719 192.671875 C 136.011719 180.835938 137.566406 163.746094 140.699219 141.398438 C 143.15625 121.527344 144.382812 108.460938 144.382812 102.191406 C 144.382812 97.238281 142.65625 94.734375 139.238281 94.734375 C 134.574219 94.734375 128.648438 100.347656 121.476562 111.570312 C 114.34375 122.753906 107.453125 137.050781 100.800781 154.464844 C 94.128906 171.839844 88.769531 188.898438 84.730469 205.660156 C 81.292969 220.261719 77.308594 230.140625 72.816406 235.257812 C 68.304688 240.382812 61.230469 242.945312 51.601562 242.945312 Z M 51.609375 242.957031 " fill-opacity="1" fill-rule="nonzero"/><path fill="#2a4aa1" d="M 120.308594 451.660156 C 111.78125 450.546875 101.902344 449.722656 94.570312 445.277344 C 73.652344 432.355469 76.539062 408.960938 91.296875 392.378906 C 98.765625 384.191406 99.457031 370.820312 108.644531 364.414062 C 121.230469 355.335938 134.6875 348.652344 149.539062 356.945312 C 164.839844 365.519531 178.253906 377.710938 186.46875 393.265625 C 191.355469 402.804688 197.730469 413.585938 197.75 424.839844 C 197.867188 431.097656 193.777344 436.167969 188.945312 439.210938 C 177.886719 446.5625 164.488281 447.65625 151.390625 448.964844 C 140.773438 450.046875 131.25 453.109375 120.757812 451.707031 Z M 61.691406 391.035156 C 48.355469 384.027344 43.707031 364.570312 42.152344 350.8125 C 41.761719 344.4375 41.902344 336.574219 47.671875 333.109375 C 52.714844 330.71875 58.15625 331.699219 63.121094 334.894531 C 71.722656 340.292969 77.777344 348.894531 81.484375 357.957031 C 84.164062 363.332031 86.410156 369.542969 86.121094 375.570312 C 86.621094 389.136719 74.6875 396.046875 62.152344 391.238281 L 61.691406 391.046875 Z M 197.644531 387.832031 C 177.398438 375.601562 188.917969 331.757812 212.824219 330.699219 C 227.617188 328.722656 233.347656 341.558594 232.292969 354.480469 C 232.339844 365.347656 225.292969 376.414062 219.265625 384.210938 C 214.742188 390.757812 204.894531 391.140625 198.027344 388.042969 L 197.644531 387.839844 Z M 101 343.527344 C 84.46875 337.257812 81.925781 314.488281 81.457031 298.90625 C 79.324219 283.832031 85.125 268.550781 102.96875 274.578125 C 115.304688 280.167969 120.96875 294.546875 121.824219 307.507812 C 121.882812 318 122.871094 330.574219 115.140625 338.699219 C 111.667969 342.375 106.53125 344.746094 101.425781 343.621094 L 100.992188 343.515625 Z M 154.90625 335.367188 C 141.339844 329.15625 146.4375 312.152344 144.824219 300.441406 C 143.703125 291.5625 145.59375 280.597656 154.011719 275.886719 C 163.402344 270.269531 176.964844 272.648438 184.242188 280.511719 C 189.292969 287.578125 187.957031 298.609375 187.46875 307.113281 C 184.90625 321.648438 172.378906 340.414062 155.347656 335.539062 Z M 154.90625 335.367188 " fill-opacity="1" fill-rule="nonzero"/></svg>