<svg xmlns="http://www.w3.org/2000/svg" xmlns:xlink="http://www.w3.org/1999/xlink" width="640" zoomAndPan="magnify" viewBox="0 0 480 199.499995" height="266" preserveAspectRatio="xMidYMid meet" version="1.0"><path fill="#2a4aa1" d="M 197.476562 190.425781 C 191.164062 190.425781 186.484375 188.566406 183.433594 184.847656 C 180.40625 181.128906 178.886719 176.695312 178.886719 171.519531 C 178.886719 163.964844 181.699219 158.035156 187.320312 153.707031 C 192.960938 149.355469 200.289062 146.226562 209.3125 144.304688 C 217.867188 142.515625 222.144531 139.695312 222.144531 135.875 C 222.144531 134.40625 221.527344 132.96875 220.285156 131.554688 C 219.046875 130.148438 216.894531 129.4375 213.847656 129.4375 C 210.800781 129.4375 208.339844 130.261719 206.417969 131.894531 C 204.503906 133.539062 202.820312 135.398438 201.355469 137.476562 C 199.875 139.550781 198.273438 141.410156 196.515625 143.054688 C 194.78125 144.695312 192.445312 145.511719 189.511719 145.511719 C 187.597656 145.511719 185.945312 144.84375 184.539062 143.488281 C 183.125 142.136719 182.421875 140.503906 182.421875 138.570312 C 182.421875 134.738281 183.941406 131.503906 186.96875 128.878906 C 190.015625 126.234375 193.984375 124.230469 198.894531 122.875 C 203.792969 121.523438 209.113281 120.851562 214.882812 120.851562 C 221.070312 120.851562 226.703125 121.84375 231.777344 123.828125 C 236.839844 125.789062 240.902344 129.074219 243.929688 133.695312 C 246.980469 138.3125 248.507812 144.613281 248.507812 152.621094 L 248.507812 167.664062 C 248.507812 171.613281 248.777344 174.597656 249.335938 176.613281 C 249.902344 178.636719 250.574219 180.125 251.359375 181.097656 C 252.15625 182.058594 252.839844 182.84375 253.386719 183.472656 C 253.953125 184.082031 254.242188 185.011719 254.242188 186.242188 C 254.242188 187.925781 253.726562 189.03125 252.703125 189.589844 C 251.691406 190.15625 250.398438 190.445312 248.839844 190.445312 C 247.132812 190.445312 245.273438 190.269531 243.238281 189.929688 C 241.210938 189.597656 239.363281 189.445312 237.6875 189.445312 C 235.871094 189.445312 234.289062 189.527344 232.945312 189.703125 C 231.589844 189.878906 230.175781 190.074219 228.707031 190.300781 C 226.910156 190.507812 225.308594 190.269531 223.902344 189.589844 C 222.488281 188.925781 221.671875 187.699219 221.441406 185.902344 C 221.328125 184.09375 221.039062 182.882812 220.585938 182.273438 C 220.140625 181.644531 219.59375 181.332031 218.933594 181.332031 C 217.691406 181.332031 216.078125 182.097656 214.09375 183.617188 C 212.132812 185.144531 209.765625 186.664062 207.007812 188.195312 C 204.238281 189.691406 201.054688 190.457031 197.457031 190.457031 Z M 205.085938 164.574219 C 205.085938 167.859375 205.890625 170.195312 207.511719 171.613281 C 209.144531 173.007812 211.097656 173.699219 213.371094 173.699219 C 216.171875 173.699219 218.300781 172.488281 219.78125 170.070312 C 221.246094 167.65625 221.980469 164.8125 221.980469 161.546875 L 221.980469 153.425781 C 221.980469 150.398438 220.566406 149.613281 217.742188 151.082031 C 215.945312 151.980469 214.066406 152.960938 212.082031 154.027344 C 210.117188 155.101562 208.453125 156.421875 207.109375 158.003906 C 205.757812 159.59375 205.085938 161.777344 205.085938 164.574219 Z M 205.085938 164.574219 " fill-opacity="1" fill-rule="nonzero"/><path fill="#2a4aa1" d="M 275.894531 189.421875 C 274.1875 189.421875 272.195312 189.578125 269.890625 189.910156 C 267.585938 190.25 265.40625 190.425781 263.367188 190.425781 C 261.457031 190.425781 259.855469 190.136719 258.5625 189.566406 C 257.261719 189.019531 256.621094 187.90625 256.621094 186.222656 C 256.621094 184.980469 256.890625 184.0625 257.445312 183.453125 C 258.015625 182.820312 258.6875 182.035156 259.472656 181.074219 C 260.269531 180.105469 260.949219 178.605469 261.5 176.589844 C 262.066406 174.578125 262.355469 171.589844 262.355469 167.644531 L 262.355469 154.296875 C 262.355469 149.234375 262.386719 144.191406 262.4375 139.167969 C 262.5 134.160156 262.519531 129.820312 262.519531 126.160156 L 262.519531 119.15625 C 262.519531 116.109375 262.035156 114 261.0625 112.8125 C 260.101562 111.636719 259.152344 110.714844 258.203125 110.042969 C 257.242188 109.363281 256.777344 108.296875 256.777344 106.839844 C 256.777344 105.148438 257.332031 104 258.460938 103.378906 C 259.585938 102.75 261.1875 102.222656 263.265625 101.777344 C 265.363281 101.324219 267.875 100.582031 270.789062 99.546875 C 274.40625 98.214844 276.886719 97.015625 278.21875 95.941406 C 279.574219 94.855469 280.574219 93.976562 281.246094 93.308594 C 281.929688 92.625 283.003906 92.273438 284.480469 92.273438 C 286.496094 92.273438 287.839844 93.183594 288.511719 94.992188 C 289.195312 96.789062 289.542969 98.917969 289.542969 101.398438 L 289.542969 167.644531 C 289.542969 171.589844 289.8125 174.578125 290.371094 176.589844 C 290.941406 178.617188 291.613281 180.105469 292.398438 181.074219 C 293.191406 182.035156 293.875 182.820312 294.421875 183.453125 C 294.992188 184.0625 295.28125 184.992188 295.28125 186.222656 C 295.28125 187.90625 294.628906 189.011719 293.335938 189.566406 C 292.035156 190.136719 290.433594 190.425781 288.53125 190.425781 C 286.394531 190.425781 284.160156 190.25 281.835938 189.910156 C 279.53125 189.578125 277.535156 189.421875 275.863281 189.421875 Z M 275.894531 189.421875 " fill-opacity="1" fill-rule="nonzero"/><path fill="#2a4aa1" d="M 395.953125 190.425781 C 389.640625 190.425781 384.960938 188.566406 381.910156 184.847656 C 378.882812 181.128906 377.363281 176.695312 377.363281 171.519531 C 377.363281 163.964844 380.175781 158.035156 385.796875 153.707031 C 391.4375 149.355469 398.765625 146.226562 407.789062 144.304688 C 416.34375 142.515625 420.621094 139.695312 420.621094 135.875 C 420.621094 134.40625 420.003906 132.96875 418.761719 131.554688 C 417.523438 130.148438 415.371094 129.4375 412.324219 129.4375 C 409.277344 129.4375 406.816406 130.261719 404.894531 131.894531 C 402.980469 133.539062 401.296875 135.398438 399.832031 137.476562 C 398.351562 139.550781 396.75 141.410156 394.992188 143.054688 C 393.257812 144.695312 390.921875 145.511719 387.988281 145.511719 C 386.074219 145.511719 384.421875 144.84375 383.015625 143.488281 C 381.601562 142.136719 380.898438 140.503906 380.898438 138.570312 C 380.898438 134.738281 382.417969 131.503906 385.445312 128.878906 C 388.492188 126.234375 392.460938 124.230469 397.371094 122.875 C 402.269531 121.523438 407.589844 120.851562 413.359375 120.851562 C 419.546875 120.851562 425.179688 121.84375 430.253906 123.828125 C 435.316406 125.789062 439.378906 129.074219 442.40625 133.695312 C 445.457031 138.3125 446.984375 144.613281 446.984375 152.621094 L 446.984375 167.664062 C 446.984375 171.613281 447.253906 174.597656 447.8125 176.613281 C 448.378906 178.636719 449.050781 180.125 449.835938 181.097656 C 450.632812 182.058594 451.316406 182.84375 451.863281 183.472656 C 452.429688 184.082031 452.71875 185.011719 452.71875 186.242188 C 452.71875 187.925781 452.203125 189.03125 451.179688 189.589844 C 450.167969 190.15625 448.875 190.445312 447.316406 190.445312 C 445.609375 190.445312 443.75 190.269531 441.714844 189.929688 C 439.6875 189.597656 437.839844 189.445312 436.164062 189.445312 C 434.347656 189.445312 432.765625 189.527344 431.421875 189.703125 C 430.066406 189.878906 428.652344 190.074219 427.183594 190.300781 C 425.386719 190.507812 423.785156 190.269531 422.378906 189.589844 C 420.964844 188.925781 420.148438 187.699219 419.917969 185.902344 C 419.804688 184.09375 419.515625 182.882812 419.0625 182.273438 C 418.617188 181.644531 418.070312 181.332031 417.410156 181.332031 C 416.167969 181.332031 414.554688 182.097656 412.574219 183.617188 C 410.609375 185.144531 408.242188 186.664062 405.484375 188.195312 C 402.714844 189.691406 399.53125 190.457031 395.933594 190.457031 L 395.957031 190.425781 Z M 403.5625 164.574219 C 403.5625 167.859375 404.367188 170.195312 405.988281 171.613281 C 407.621094 173.007812 409.574219 173.699219 411.847656 173.699219 C 414.648438 173.699219 416.777344 172.488281 418.257812 170.070312 C 419.722656 167.65625 420.457031 164.8125 420.457031 161.546875 L 420.457031 153.425781 C 420.457031 150.398438 419.042969 149.613281 416.21875 151.082031 C 414.421875 151.980469 412.542969 152.960938 410.558594 154.027344 C 408.59375 155.101562 406.929688 156.421875 405.585938 158.003906 C 404.234375 159.59375 403.5625 161.777344 403.5625 164.574219 Z M 403.5625 164.574219 " fill-opacity="1" fill-rule="nonzero"/><path fill="#2a4aa1" d="M 306.160156 102.511719 C 305.707031 102.253906 305.273438 101.945312 304.828125 101.644531 C 304.675781 101.6875 304.5 101.726562 304.355469 101.757812 C 302.277344 102.203125 300.675781 102.730469 299.546875 103.359375 C 298.421875 103.96875 297.863281 105.125 297.863281 106.820312 C 297.863281 108.515625 298.339844 109.683594 299.289062 110.363281 C 300.242188 111.035156 301.191406 111.902344 302.152344 112.96875 C 303.125 114.042969 303.609375 116.097656 303.609375 119.148438 L 303.609375 126.152344 C 303.609375 129.808594 303.578125 134.148438 303.527344 139.160156 C 303.464844 144.179688 303.445312 149.210938 303.445312 154.285156 L 303.445312 167.632812 C 303.445312 171.582031 303.15625 174.566406 302.585938 176.582031 C 302.027344 178.605469 301.355469 180.09375 300.5625 181.066406 C 299.777344 182.027344 299.105469 182.8125 298.535156 183.441406 C 297.976562 184.050781 297.707031 184.980469 297.707031 186.210938 C 297.707031 187.894531 298.347656 189 299.652344 189.558594 C 300.945312 190.125 302.546875 190.414062 304.457031 190.414062 C 306.492188 190.414062 308.664062 190.238281 310.976562 189.898438 C 313.28125 189.566406 315.277344 189.414062 316.980469 189.414062 C 320.359375 189.414062 322.964844 189.476562 324.816406 189.589844 C 326.6875 189.703125 328.402344 189.816406 329.960938 189.929688 C 331.542969 190.042969 333.660156 190.148438 336.308594 190.238281 C 338.953125 190.355469 342.753906 190.414062 347.714844 190.414062 C 353.90625 190.414062 359.082031 188.730469 363.246094 185.351562 C 367.421875 181.972656 370.523438 177.675781 372.539062 172.429688 C 374.574219 167.191406 375.628906 161.589844 375.679688 155.617188 C 375.742188 149.65625 374.800781 144.054688 372.878906 138.808594 C 370.96875 133.570312 368.105469 129.261719 364.269531 125.882812 C 360.4375 122.503906 355.652344 120.820312 349.917969 120.820312 C 346.660156 120.820312 343.890625 121.410156 341.628906 122.597656 C 339.375 123.785156 337.546875 125.160156 336.140625 126.742188 C 334.746094 128.3125 333.621094 129.683594 332.761719 130.882812 C 331.914062 132.070312 331.355469 132.679688 331.078125 132.742188 C 330.789062 132.785156 330.644531 131.90625 330.644531 130.109375 L 330.644531 101.375 C 330.644531 100.828125 330.621094 100.3125 330.59375 99.796875 C 326.25 103.328125 321.550781 105.136719 316.464844 105.136719 C 312.722656 105.136719 309.292969 104.257812 306.171875 102.503906 L 306.164062 102.503906 Z M 331.964844 145.679688 C 333.433594 141.84375 335.75 139.933594 338.910156 139.933594 C 342.074219 139.933594 344.210938 141.824219 345.742188 145.597656 C 347.261719 149.367188 348.027344 153.789062 348.027344 158.832031 C 348.027344 163.871094 347.261719 168.265625 345.742188 171.921875 C 344.210938 175.578125 341.9375 177.40625 338.910156 177.40625 C 335.882812 177.40625 333.566406 175.609375 332.050781 172.003906 C 330.539062 168.398438 329.785156 164.070312 329.785156 158.996094 C 329.785156 153.921875 330.507812 149.492188 331.957031 145.667969 L 331.964844 145.667969 Z M 331.964844 145.679688 " fill-opacity="1" fill-rule="nonzero"/><path fill="#2a4aa1" d="M 18.71875 95.539062 C 14.328125 95.539062 11.238281 93.234375 9.449219 88.617188 C 7.652344 83.988281 6.761719 76.589844 6.761719 66.433594 C 6.761719 51.421875 8.890625 37.144531 13.167969 23.609375 C 14.214844 20.261719 15.917969 17.800781 18.285156 16.261719 C 20.660156 14.703125 23.988281 13.917969 28.269531 13.917969 C 30.574219 13.917969 32.183594 14.207031 33.105469 14.773438 C 34.035156 15.34375 34.507812 16.449219 34.507812 18.058594 C 34.507812 19.910156 33.640625 24.082031 31.90625 30.550781 C 30.757812 35.167969 29.828125 39.179688 29.136719 42.585938 C 28.453125 46.007812 27.875 50.253906 27.421875 55.335938 C 30.519531 46.328125 34.242188 38.691406 38.570312 32.460938 C 42.921875 26.210938 47.367188 21.5625 51.921875 18.515625 C 56.5 15.445312 60.800781 13.90625 64.851562 13.90625 C 68.902344 13.90625 71.753906 14.835938 73.429688 16.675781 C 75.101562 18.523438 75.949219 21.355469 75.949219 25.167969 C 75.949219 28.980469 74.84375 35.574219 72.664062 45.265625 C 71.742188 49.425781 71.101562 52.539062 70.75 54.613281 C 76.539062 40.417969 82.964844 30.085938 89.992188 23.617188 C 97.042969 17.140625 103.644531 13.894531 109.78125 13.894531 C 117.285156 13.894531 121.046875 17.65625 121.046875 25.15625 C 121.046875 29.664062 119.765625 37.804688 117.214844 49.601562 C 115.023438 59.65625 113.925781 66.289062 113.925781 69.53125 C 113.925781 74.152344 115.601562 76.457031 118.960938 76.457031 C 121.265625 76.457031 124.003906 75.050781 127.195312 72.21875 C 130.378906 69.378906 134.625 64.789062 139.949219 58.4375 C 141.324219 56.824219 142.871094 56.007812 144.609375 56.007812 C 146.109375 56.007812 147.296875 56.710938 148.152344 58.097656 C 149.023438 59.46875 149.464844 61.382812 149.464844 63.808594 C 149.464844 68.425781 148.359375 72.011719 146.179688 74.554688 C 141.210938 80.671875 135.855469 85.703125 130.140625 89.617188 C 124.425781 93.542969 117.917969 95.507812 110.640625 95.507812 C 104.75 95.507812 100.296875 93.8125 97.289062 90.414062 C 94.273438 87.003906 92.773438 82.054688 92.773438 75.578125 C 92.773438 72.34375 93.578125 66.566406 95.203125 58.25 C 96.699219 50.976562 97.464844 45.945312 97.464844 43.15625 C 97.464844 41.316406 96.824219 40.386719 95.554688 40.386719 C 94.066406 40.386719 91.925781 42.328125 89.144531 46.222656 C 86.375 50.097656 83.605469 55.203125 80.828125 61.546875 C 78.058594 67.890625 75.804688 74.597656 74.078125 81.640625 C 72.796875 87.191406 71.320312 90.890625 69.644531 92.738281 C 67.960938 94.585938 65.273438 95.507812 61.585938 95.507812 C 57.894531 95.507812 54.910156 93.6875 53.007812 90.042969 C 51.097656 86.40625 50.144531 81.992188 50.144531 76.808594 C 50.144531 72.40625 50.722656 66.050781 51.890625 57.734375 C 52.8125 50.347656 53.265625 45.480469 53.265625 43.15625 C 53.265625 41.316406 52.625 40.386719 51.355469 40.386719 C 49.617188 40.386719 47.417969 42.472656 44.75 46.648438 C 42.09375 50.8125 39.53125 56.121094 37.0625 62.601562 C 34.582031 69.058594 32.585938 75.410156 31.089844 81.640625 C 29.808594 87.078125 28.328125 90.746094 26.65625 92.644531 C 24.972656 94.558594 22.347656 95.507812 18.761719 95.507812 C 18.761719 95.507812 18.71875 95.539062 18.71875 95.539062 Z M 18.71875 95.539062 " fill-opacity="1" fill-rule="nonzero"/><path fill="#2a4aa1" d="M 225.929688 41.472656 C 227.425781 41.472656 228.585938 42.226562 229.390625 43.734375 C 230.207031 45.222656 230.621094 47.132812 230.621094 49.449219 C 230.621094 54.996094 228.933594 58.28125 225.585938 59.316406 C 218.644531 61.742188 211.015625 63.128906 202.707031 63.488281 C 200.515625 73.191406 196.175781 80.960938 189.695312 86.789062 C 183.21875 92.625 175.871094 95.539062 167.675781 95.539062 C 160.730469 95.539062 154.808594 93.875 149.890625 90.539062 C 144.980469 87.191406 141.261719 82.738281 138.707031 77.1875 C 136.167969 71.640625 134.90625 65.628906 134.90625 59.148438 C 134.90625 50.367188 136.578125 42.535156 139.9375 35.675781 C 143.285156 28.792969 147.917969 23.421875 153.804688 19.546875 C 159.695312 15.683594 166.226562 13.742188 173.398438 13.742188 C 182.183594 13.742188 189.273438 16.769531 194.648438 22.832031 C 200.019531 28.898438 203.171875 36.378906 204.082031 45.273438 C 209.519531 44.933594 215.988281 43.777344 223.5 41.8125 C 224.429688 41.585938 225.246094 41.472656 225.929688 41.472656 Z M 169.050781 77.1875 C 172.769531 77.1875 175.972656 75.691406 178.691406 72.675781 C 181.398438 69.667969 183.21875 65.328125 184.15625 59.667969 C 180.570312 57.25 177.824219 54.078125 175.921875 50.152344 C 174.007812 46.222656 173.058594 42.0625 173.058594 37.660156 C 173.058594 35.820312 173.234375 33.960938 173.574219 32.109375 L 172.71875 32.109375 C 168.089844 32.109375 164.234375 34.34375 161.164062 38.804688 C 158.117188 43.25 156.585938 49.519531 156.585938 57.621094 C 156.585938 63.964844 157.828125 68.820312 160.304688 72.179688 C 162.796875 75.535156 165.722656 77.210938 169.058594 77.210938 L 169.058594 77.1875 Z M 169.050781 77.1875 " fill-opacity="1" fill-rule="nonzero"/><path fill="#2a4aa1" d="M 230.082031 95.539062 C 225.691406 95.539062 222.601562 93.234375 220.8125 88.617188 C 219.015625 83.988281 218.125 76.589844 218.125 66.433594 C 218.125 51.421875 220.253906 37.144531 224.53125 23.609375 C 225.578125 20.261719 227.28125 17.800781 229.648438 16.261719 C 232.023438 14.703125 235.351562 13.917969 239.632812 13.917969 C 241.9375 13.917969 243.546875 14.207031 244.46875 14.773438 C 245.398438 15.34375 245.871094 16.449219 245.871094 18.058594 C 245.871094 19.910156 245.003906 24.082031 243.269531 30.550781 C 242.121094 35.167969 241.191406 39.210938 240.5 42.671875 C 239.816406 46.140625 239.238281 50.417969 238.785156 55.503906 C 242.597656 45.554688 246.863281 37.464844 251.597656 31.234375 C 256.339844 25.003906 260.992188 20.558594 265.550781 17.90625 C 270.128906 15.238281 274.3125 13.90625 278.136719 13.90625 C 285.636719 13.90625 289.398438 17.667969 289.398438 25.167969 C 289.398438 26.675781 288.875 30.3125 287.828125 36.089844 C 286.910156 40.707031 286.453125 43.589844 286.453125 44.746094 C 286.453125 48.796875 287.902344 50.8125 290.804688 50.8125 C 294.019531 50.8125 298.183594 48.269531 303.277344 43.175781 C 304.777344 41.679688 306.347656 40.914062 307.96875 40.914062 C 309.46875 40.914062 310.65625 41.585938 311.515625 42.917969 C 312.382812 44.25 312.828125 46.019531 312.828125 48.207031 C 312.828125 52.484375 311.660156 55.832031 309.335938 58.269531 C 306.109375 61.628906 302.328125 64.492188 297.976562 66.847656 C 293.648438 69.210938 289.058594 70.390625 284.191406 70.390625 C 278.074219 70.390625 273.414062 68.839844 270.242188 65.730469 C 267.046875 62.609375 265.464844 58.386719 265.464844 53.0625 C 265.464844 51.339844 265.640625 49.59375 266.015625 47.855469 C 266.242188 45.554688 266.355469 43.992188 266.355469 43.167969 C 266.355469 41.328125 265.714844 40.398438 264.441406 40.398438 C 262.707031 40.398438 260.421875 42.339844 257.582031 46.234375 C 254.761719 50.109375 251.960938 55.214844 249.167969 61.558594 C 246.398438 67.902344 244.148438 74.605469 242.421875 81.652344 C 241.140625 87.085938 239.660156 90.753906 237.988281 92.65625 C 236.304688 94.566406 233.679688 95.519531 230.09375 95.519531 L 230.09375 95.539062 Z M 230.082031 95.539062 " fill-opacity="1" fill-rule="nonzero"/><path fill="#2a4aa1" d="M 316.433594 95.539062 C 311.246094 95.539062 307.007812 93.152344 303.710938 88.359375 C 300.40625 83.554688 298.761719 77.570312 298.761719 70.402344 C 298.761719 61.734375 299.332031 53.789062 300.476562 46.585938 C 301.636719 39.363281 303.546875 31.707031 306.222656 23.597656 C 307.371094 20.125 308.972656 17.648438 311.058594 16.167969 C 313.160156 14.671875 316.453125 13.90625 320.949219 13.90625 C 323.480469 13.90625 325.25 14.320312 326.242188 15.136719 C 327.222656 15.933594 327.730469 17.140625 327.730469 18.742188 C 327.730469 19.683594 327.089844 22.800781 325.816406 28.125 C 324.648438 32.402344 323.730469 36.265625 323.046875 39.726562 C 320.742188 51.867188 319.585938 59.964844 319.585938 63.996094 C 319.585938 66.421875 319.875 68.128906 320.445312 69.109375 C 321.011719 70.082031 321.941406 70.566406 323.214844 70.566406 C 324.9375 70.566406 327.109375 68.839844 329.703125 65.359375 C 332.316406 61.886719 335.085938 56.640625 338.023438 49.601562 C 340.976562 42.558594 343.828125 33.878906 346.597656 23.585938 C 347.53125 20.117188 348.957031 17.636719 350.855469 16.160156 C 352.757812 14.660156 355.621094 13.894531 359.433594 13.894531 C 362.101562 13.894531 363.949219 14.207031 364.984375 14.835938 C 366.027344 15.464844 366.554688 16.65625 366.554688 18.378906 C 366.554688 21.285156 365.109375 29.199219 362.203125 42.144531 C 358.957031 56.9375 357.347656 66.0625 357.347656 69.53125 C 357.347656 71.722656 357.800781 73.4375 358.722656 74.648438 C 359.652344 75.847656 360.871094 76.445312 362.378906 76.445312 C 364.683594 76.445312 367.421875 75.039062 370.617188 72.210938 C 373.796875 69.367188 378.046875 64.78125 383.367188 58.425781 C 384.753906 56.816406 386.3125 56 388.027344 56 C 389.527344 56 390.714844 56.699219 391.574219 58.085938 C 392.441406 59.460938 392.886719 61.371094 392.886719 63.800781 C 392.886719 68.417969 391.78125 72.003906 389.597656 74.542969 C 384.628906 80.660156 379.277344 85.691406 373.5625 89.609375 C 367.847656 93.535156 361.335938 95.496094 354.058594 95.496094 C 348.511719 95.496094 344.429688 93.367188 341.824219 89.089844 C 339.230469 84.824219 337.9375 78.8125 337.9375 71.050781 C 335.976562 78.925781 333.03125 84.96875 329.105469 89.175781 C 325.175781 93.390625 320.949219 95.496094 316.433594 95.496094 Z M 316.433594 95.539062 " fill-opacity="1" fill-rule="nonzero"/><path fill="#2a4aa1" d="M 413.203125 99.371094 C 407.179688 99.371094 402.570312 97.976562 399.386719 95.199219 C 396.222656 92.4375 394.644531 89.320312 394.644531 85.847656 C 394.644531 82.839844 395.738281 80.238281 397.929688 78.046875 C 400.121094 75.855469 403.363281 74.761719 407.652344 74.761719 C 409.152344 74.761719 410.917969 74.90625 412.945312 75.195312 C 414.960938 75.484375 416.488281 75.679688 417.523438 75.792969 C 417.410156 72.789062 416.738281 69.957031 415.515625 67.300781 C 414.320312 64.65625 412.789062 62.09375 410.941406 59.613281 C 409.089844 57.125 407.355469 54.945312 405.730469 53.09375 C 402.144531 59.925781 398.589844 65.585938 395.066406 70.113281 C 391.53125 74.617188 387.699219 78.882812 383.542969 82.921875 C 381.464844 85 379.265625 86.042969 376.972656 86.042969 C 375.121094 86.042969 373.613281 85.382812 372.457031 84.039062 C 371.296875 82.707031 370.707031 81.0625 370.707031 79.089844 C 370.707031 76.785156 371.523438 74.648438 373.136719 72.683594 L 375.402344 69.914062 C 381.746094 62.0625 386.539062 55.59375 389.785156 50.5 C 391.75 47.15625 394.054688 42.671875 396.710938 37.058594 C 399.375 31.460938 401.988281 25.652344 404.542969 19.652344 C 406.734375 14.558594 411.300781 12.015625 418.246094 12.015625 C 421.460938 12.015625 423.710938 12.316406 424.992188 12.90625 C 426.265625 13.472656 426.90625 14.390625 426.90625 15.652344 C 426.90625 16.355469 426.65625 17.472656 426.191406 18.96875 C 425.738281 20.457031 425.109375 21.957031 424.300781 23.453125 C 422.222656 27.617188 421.179688 31.140625 421.179688 34.03125 C 421.179688 35.769531 421.78125 37.679688 422.980469 39.746094 C 424.199219 41.824219 426.078125 44.425781 428.609375 47.546875 C 432.308594 52.402344 435.109375 56.546875 437.023438 59.957031 C 438.925781 63.355469 439.886719 67.0625 439.886719 71.105469 C 439.886719 72.269531 439.773438 73.894531 439.542969 75.960938 C 445.207031 73.769531 451.851562 67.941406 459.511719 58.457031 C 460.882812 56.84375 462.433594 56.03125 464.171875 56.03125 C 465.667969 56.03125 466.855469 56.730469 467.714844 58.117188 C 468.582031 59.492188 469.027344 61.402344 469.027344 63.828125 C 469.027344 68.222656 467.921875 71.796875 465.742188 74.574219 C 459.964844 81.746094 454.445312 86.621094 449.1875 89.214844 C 443.925781 91.808594 437.414062 93.234375 429.6875 93.472656 C 425.054688 97.398438 419.558594 99.359375 413.214844 99.359375 L 413.203125 99.359375 Z M 413.203125 99.371094 " fill-opacity="1" fill-rule="nonzero"/><path fill="#2a4aa1" d="M 118.929688 188.617188 C 115.757812 188.203125 112.085938 187.894531 109.359375 186.242188 C 101.578125 181.4375 102.652344 172.738281 108.140625 166.570312 C 110.921875 163.523438 111.179688 158.550781 114.589844 156.164062 C 119.269531 152.785156 124.28125 150.308594 129.800781 153.386719 C 135.496094 156.578125 140.484375 161.113281 143.535156 166.890625 C 145.351562 170.445312 147.71875 174.453125 147.730469 178.636719 C 147.769531 180.960938 146.253906 182.851562 144.453125 183.980469 C 140.339844 186.714844 135.351562 187.121094 130.480469 187.605469 C 126.535156 188.007812 122.988281 189.144531 119.082031 188.628906 L 118.917969 188.605469 Z M 97.125 166.074219 C 92.164062 163.46875 90.4375 156.226562 89.859375 151.113281 C 89.714844 148.738281 89.765625 145.8125 91.914062 144.53125 C 93.785156 143.644531 95.8125 144.003906 97.660156 145.191406 C 100.863281 147.199219 103.117188 150.398438 104.492188 153.769531 C 105.484375 155.761719 106.320312 158.078125 106.21875 160.320312 C 106.402344 165.359375 101.960938 167.933594 97.300781 166.144531 C 97.300781 166.144531 97.125 166.074219 97.125 166.074219 Z M 147.699219 164.875 C 140.164062 160.328125 144.453125 144.015625 153.339844 143.621094 C 158.839844 142.890625 160.976562 147.664062 160.585938 152.464844 C 160.605469 156.507812 157.980469 160.628906 155.738281 163.523438 C 154.054688 165.960938 150.394531 166.105469 147.832031 164.949219 L 147.6875 164.875 Z M 111.746094 148.394531 C 105.597656 146.0625 104.648438 137.589844 104.472656 131.804688 C 103.675781 126.191406 105.835938 120.511719 112.480469 122.753906 C 117.070312 124.828125 119.175781 130.179688 119.496094 134.996094 C 119.519531 138.902344 119.890625 143.570312 117.015625 146.597656 C 115.726562 147.972656 113.8125 148.851562 111.910156 148.425781 L 111.746094 148.386719 Z M 131.792969 145.359375 C 126.75 143.042969 128.644531 136.722656 128.042969 132.371094 C 127.628906 129.066406 128.332031 124.996094 131.464844 123.238281 C 134.957031 121.152344 140 122.039062 142.707031 124.964844 C 144.589844 127.585938 144.09375 131.699219 143.90625 134.859375 C 142.957031 140.265625 138.296875 147.25 131.960938 145.429688 L 131.792969 145.367188 Z M 131.792969 145.359375 " fill-opacity="1" fill-rule="nonzero"/></svg>